<svg xmlns="http://www.w3.org/2000/svg" version="1.1" xmlns:xlink="http://www.w3.org/1999/xlink" xmlns:svgjs="http://svgjs.dev/svgjs" width="2000" height="343" viewBox="0 0 2000 343"><g transform="matrix(1,0,0,1,-1.2121212121212466,0.40781063211682067)"><svg viewBox="0 0 396 68" data-background-color="#ffffff" preserveAspectRatio="xMidYMid meet" height="343" width="2000" xmlns="http://www.w3.org/2000/svg" xmlns:xlink="http://www.w3.org/1999/xlink"><g id="tight-bounds" transform="matrix(1,0,0,1,0.2400000000000091,-0.0808487550552286)"><svg viewBox="0 0 395.52 68.16169751011043" height="68.16169751011043" width="395.52"><g><svg viewBox="0 0 538.3296418242486 92.77270986739109" height="68.16169751011043" width="395.52"><g transform="matrix(1,0,0,1,142.80964182424853,9.502117299358034)"><svg viewBox="0 0 395.52000000000004 73.76847526867502" height="73.76847526867502" width="395.52000000000004"><g id="textblocktransform"><svg viewBox="0 0 395.52000000000004 73.76847526867502" height="73.76847526867502" width="395.52000000000004" id="textblock"><g><svg viewBox="0 0 395.52000000000004 47.71335643828313" height="47.71335643828313" width="395.52000000000004"><g transform="matrix(1,0,0,1,0,0)"><svg width="395.52000000000004" viewBox="0.75 -36.15 375.06 45.25" height="47.71335643828313" data-palette-color="#a7a7a7"><path d="M0.75 0L6.8-34.3 14.95-34.3 18.35-12.3Q18.65-10.25 18.7-6.35L18.7-6.35 18.95-6.35Q20.45-10.55 21.3-12.3L21.3-12.3 32.4-34.3 40.95-34.3 34.9 0 29.4 0 33.35-22.4 34.55-28.55 34.25-28.55Q34.1-28.25 33.65-27.08 33.2-25.9 32.75-24.95L32.75-24.95 20.1 0 15.15 0 11.4-24.95Q11.3-25.75 11.23-26.98 11.15-28.2 11.1-28.55L11.1-28.55 10.85-28.55Q10.2-23.75 9.95-22.4L9.95-22.4 6 0 0.75 0ZM53.9 0.6Q48.8 0.6 45.82-2.23 42.85-5.05 42.8-9.95L42.8-9.95Q42.8-11.5 43.05-13.85L43.05-13.85Q45.1-26.9 56.95-26.9L56.95-26.9Q62.1-26.9 65.1-24.1 68.1-21.3 68.15-16.45L68.15-16.45Q68.15-15 67.8-12.45L67.8-12.45Q65.85 0.6 53.9 0.6L53.9 0.6ZM54.05-3.7Q57.9-3.7 60-5.98 62.1-8.25 62.8-13.3L62.8-13.3Q63.05-15.4 63.05-16.75L63.05-16.75Q62.95-19.6 61.35-21.13 59.75-22.65 56.7-22.65L56.7-22.65Q52.95-22.65 50.87-20.33 48.8-18 48.1-13L48.1-13Q47.85-11.45 47.85-9.55L47.85-9.55Q47.95-6.75 49.52-5.23 51.1-3.7 54.05-3.7L54.05-3.7ZM77.75 0L72.7-26.3 77.95-26.3 80.25-13.7Q80.7-11.2 81.35-5.55L81.35-5.55 81.6-5.55Q83.85-10.9 85.35-13.7L85.35-13.7 92-26.3 97.4-26.3 83.05 0 77.75 0ZM102.19-30.9L103.09-36.15 108.24-36.15 107.34-30.9 102.19-30.9ZM96.79 0L101.44-26.3 106.59-26.3 101.94 0 96.79 0ZM120.74 0.6Q114.84 0.6 111.97-1.93 109.09-4.45 109.09-9.65L109.09-9.65Q109.09-14.45 110.57-18.35 112.04-22.25 115.24-24.58 118.44-26.9 123.29-26.9L123.29-26.9Q128.44-26.9 131.09-24.55 133.74-22.2 133.74-17.6L133.74-17.6Q133.74-15.65 133.34-13.85L133.34-13.85 132.99-11.85 114.49-11.85Q114.29-10.85 114.29-9.8L114.29-9.8Q114.29-6.65 115.84-5.1 117.39-3.55 120.64-3.55L120.64-3.55Q123.34-3.55 125.19-4.9 127.04-6.25 127.49-9.05L127.49-9.05 132.54-9.05Q131.79-4.3 128.57-1.85 125.34 0.6 120.74 0.6L120.74 0.6ZM115.19-15.75L128.39-15.75Q128.59-16.6 128.59-17.65L128.59-17.65Q128.59-22.75 123.29-22.75L123.29-22.75Q116.99-22.75 115.19-15.75L115.19-15.75ZM146.89 0.6Q141.49 0.6 138.76-1.25 136.04-3.1 136.04-6.05L136.04-6.05Q136.04-7.1 136.39-8.25L136.39-8.25 141.44-8.25Q141.29-7.6 141.29-7.1L141.29-7.1Q141.29-5.3 142.79-4.4 144.29-3.5 146.69-3.5L146.69-3.5Q149.34-3.5 151.21-4.5 153.09-5.5 153.09-7.35L153.09-7.35Q153.09-8.5 152.29-9.25 151.49-10 150.31-10.45 149.14-10.9 147.04-11.5L147.04-11.5Q144.49-12.2 142.81-12.9 141.14-13.6 139.99-14.9 138.84-16.2 138.84-18.25L138.84-18.25Q138.84-20.9 140.31-22.88 141.79-24.85 144.34-25.88 146.89-26.9 150.09-26.9L150.09-26.9Q154.74-26.9 157.36-25.2 159.99-23.5 159.99-20.8L159.99-20.8Q159.99-20.25 159.86-19.63 159.74-19 159.64-18.7L159.64-18.7 154.64-18.7Q154.74-19.3 154.74-19.65L154.74-19.65Q154.74-21.05 153.61-21.9 152.49-22.75 150.09-22.75L150.09-22.75Q147.04-22.75 145.64-21.7 144.24-20.65 144.24-19.35L144.24-19.35Q144.24-17.95 145.61-17.25 146.99-16.55 149.89-15.85L149.89-15.85Q152.69-15.05 154.39-14.38 156.09-13.7 157.34-12.33 158.59-10.95 158.59-8.7L158.59-8.7Q158.59-4 155.24-1.7 151.89 0.6 146.89 0.6L146.89 0.6ZM184.58 0L189.73-29.5 178.33-29.5 179.18-34.3 207.58-34.3 206.68-29.5 195.28-29.5 190.08 0 184.58 0ZM206.28 0L210.93-26.3 214.98-26.3 214.88-22.25 215.18-22.25Q217.73-26.9 221.98-26.9L221.98-26.9Q223.38-26.9 224.43-26.5L224.43-26.5 223.53-21.6 221.68-21.6Q218.73-21.6 216.68-19.83 214.63-18.05 213.98-14.35L213.98-14.35 211.43 0 206.28 0ZM235.73 0.6Q229.83 0.6 226.95-1.93 224.08-4.45 224.08-9.65L224.08-9.65Q224.08-14.45 225.55-18.35 227.03-22.25 230.23-24.58 233.43-26.9 238.28-26.9L238.28-26.9Q243.43-26.9 246.08-24.55 248.73-22.2 248.73-17.6L248.73-17.6Q248.73-15.65 248.33-13.85L248.33-13.85 247.98-11.85 229.48-11.85Q229.28-10.85 229.28-9.8L229.28-9.8Q229.28-6.65 230.83-5.1 232.38-3.55 235.63-3.55L235.63-3.55Q238.33-3.55 240.18-4.9 242.03-6.25 242.48-9.05L242.48-9.05 247.53-9.05Q246.78-4.3 243.55-1.85 240.33 0.6 235.73 0.6L235.73 0.6ZM230.18-15.75L243.38-15.75Q243.58-16.6 243.58-17.65L243.58-17.65Q243.58-22.75 238.28-22.75L238.28-22.75Q231.98-22.75 230.18-15.75L230.18-15.75ZM251.58 0L256.23-26.3 260.23-26.3 260.23-22.75 260.58-22.75Q262.08-24.6 264.4-25.75 266.73-26.9 269.18-26.9L269.18-26.9Q276.93-26.9 276.93-20.45L276.93-20.45Q276.93-19 276.53-16.9L276.53-16.9 273.58 0 268.43 0 271.33-16.55Q271.58-18.15 271.58-19.15L271.58-19.15Q271.58-20.95 270.6-21.73 269.63-22.5 267.83-22.5L267.83-22.5Q264.83-22.5 262.4-20.38 259.98-18.25 259.33-14.65L259.33-14.65 256.73 0 251.58 0ZM289.62 0.6Q285.27 0.6 282.9-1.95 280.52-4.5 280.52-9.8L280.52-9.8Q280.52-14.5 282.07-18.43 283.62-22.35 286.47-24.63 289.32-26.9 293.02-26.9L293.02-26.9Q295.82-26.9 297.7-26 299.57-25.1 300.67-23.3L300.67-23.3 300.97-23.3 303.22-36.15 308.37-36.15 302.02 0 298.02 0 298.02-3.5 297.67-3.5Q296.12-1.5 294.05-0.45 291.97 0.6 289.62 0.6L289.62 0.6ZM291.12-3.75Q293.87-3.75 295.77-5.63 297.67-7.5 298.57-10.48 299.47-13.45 299.47-16.75L299.47-16.75Q299.47-19.65 298.17-21.13 296.87-22.6 294.12-22.6L294.12-22.6Q290.02-22.6 287.95-18.85 285.87-15.1 285.87-9.8L285.87-9.8Q285.87-6.6 287.15-5.18 288.42-3.75 291.12-3.75L291.12-3.75ZM314.22-30.9L315.12-36.15 320.27-36.15 319.37-30.9 314.22-30.9ZM308.82 0L313.47-26.3 318.62-26.3 313.97 0 308.82 0ZM320.82 0L325.47-26.3 329.47-26.3 329.47-22.75 329.82-22.75Q331.32-24.6 333.64-25.75 335.97-26.9 338.42-26.9L338.42-26.9Q346.17-26.9 346.17-20.45L346.17-20.45Q346.17-19 345.77-16.9L345.77-16.9 342.82 0 337.67 0 340.57-16.55Q340.82-18.15 340.82-19.15L340.82-19.15Q340.82-20.95 339.84-21.73 338.87-22.5 337.07-22.5L337.07-22.5Q334.07-22.5 331.64-20.38 329.22-18.25 328.57-14.65L328.57-14.65 325.97 0 320.82 0ZM358.66 9.1Q354.06 9.1 351.37 7.23 348.66 5.35 348.62 1.75L348.62 1.75 348.62 1.25 353.62 1.25Q353.81 4.9 358.66 4.9L358.66 4.9Q365.06 4.9 366.56-2.95L366.56-2.95 366.81-4.15 366.51-4.15Q363.31-0.55 358.51-0.55L358.51-0.55Q354.51-0.55 352.16-2.88 349.81-5.2 349.81-9.85L349.81-9.85Q349.81-14.6 351.34-18.5 352.87-22.4 355.71-24.65 358.56-26.9 362.41-26.9L362.41-26.9Q365.16-26.9 367.21-25.85 369.26-24.8 370.31-22.8L370.31-22.8 370.62-22.8 371.71-26.3 375.81-26.3 371.71-3.15Q370.62 3.05 367.44 6.08 364.26 9.1 358.66 9.1L358.66 9.1ZM360.41-4.9Q363.16-4.9 365.04-6.65 366.91-8.4 367.84-11.15 368.76-13.9 368.76-16.9L368.76-16.9Q368.76-22.55 363.62-22.55L363.62-22.55Q359.37-22.55 357.26-18.95 355.16-15.35 355.16-10.1L355.16-10.1Q355.16-7.35 356.41-6.13 357.66-4.9 360.41-4.9L360.41-4.9Z" opacity="1" transform="matrix(1,0,0,1,0,0)" fill="#a7a7a7" class="wordmark-text-0" data-fill-palette-color="primary" id="text-0"></path></svg></g></svg></g><g transform="matrix(1,0,0,1,357.2881602136182,58.977334772807254)"><svg viewBox="0 0 38.23183978638185 14.791140495867772" height="14.791140495867772" width="38.23183978638185"><g transform="matrix(1,0,0,1,0,0)"><svg width="38.23183978638185" viewBox="3.35 -36.85 96.79 37.45" height="14.791140495867772" data-palette-color="#84929e"><path d="M13.3-29.5L3.35-29.5 3.35-36.25 13.3-36.25 13.3-29.5ZM13.3 0L3.35 0 3.35-26.4 13.3-26.4 13.3 0ZM37.85-27Q42.45-27 44.75-24.45 47.05-21.9 47.05-17.1L47.05-17.1 47.05 0 37.1 0 37.1-15.9Q37.1-17.6 36.22-18.63 35.35-19.65 33.75-19.65L33.75-19.65Q31.9-19.65 30.75-18.45 29.6-17.25 29.6-15.5L29.6-15.5 29.6 0 19.65 0 19.65-26.4 27.8-26.4 28.45-22.4Q30-24.5 32.52-25.75 35.05-27 37.85-27L37.85-27ZM63.75-36.85Q64.84-36.85 66.5-36.58 68.15-36.3 69.15-35.95L69.15-35.95 69.15-30.1 66.84-30.1Q65.25-30.1 64.65-29.5 64.05-28.9 64.05-27.45L64.05-27.45 64.05-26.4 69.15-26.4 69.15-19.65 64.05-19.65 64.05 0 54.1 0 54.1-19.65 50.4-19.65 50.4-26.4 54.1-26.4 54.1-27.5Q54.1-32.6 56.6-34.73 59.1-36.85 63.75-36.85L63.75-36.85ZM85.24-27Q92.19-27 96.17-23.48 100.14-19.95 100.14-13.2L100.14-13.2Q100.14-6.45 96.17-2.93 92.19 0.6 85.24 0.6L85.24 0.6Q78.29 0.6 74.34-2.9 70.39-6.4 70.39-13.2L70.39-13.2Q70.39-20 74.34-23.5 78.29-27 85.24-27L85.24-27ZM85.24-20.25Q80.34-20.25 80.34-14.6L80.34-14.6 80.34-11.75Q80.34-6.15 85.24-6.15L85.24-6.15Q90.19-6.15 90.19-11.75L90.19-11.75 90.19-14.6Q90.19-20.25 85.24-20.25L85.24-20.25Z" opacity="1" transform="matrix(1,0,0,1,0,0)" fill="#84929e" class="slogan-text-1" data-fill-palette-color="secondary" id="text-1"></path></svg></g></svg></g></svg></g></svg></g><g><svg viewBox="0 0 131.5456634897244 92.77270986739109" height="92.77270986739109" width="131.5456634897244"><g><svg xmlns="http://www.w3.org/2000/svg" xmlns:xlink="http://www.w3.org/1999/xlink" version="1.1" x="0" y="0" viewBox="0.5 10.9 71.03853870664699 50.1" enable-background="new 0 0 72 72" xml:space="preserve" height="92.77270986739109" width="131.5456634897244" class="icon-icon-0" data-fill-palette-color="accent" id="icon-0"><g fill="#a7a7a7" data-fill-palette-color="accent"><path fill="#a7a7a7" d="M70.2 10.9H22.8C22.2 10.9 21.7 11.3 21.5 11.9L8.8 59.4C8.6 60.2 9.2 61 10.1 61H57.5C58.1 61 58.6 60.6 58.8 60L71.5 12.5C71.7 11.7 71.1 10.9 70.2 10.9M19.6 53.1L18.6 56.8C18.4 57.4 17.9 57.8 17.3 57.8H13.7C12.8 57.8 12.2 57 12.4 56.2L13.4 52.5C13.6 51.9 14.1 51.5 14.7 51.5H18.3C19.2 51.4 19.9 52.2 19.6 53.1M35.2 18.9L36.2 15.2C36.4 14.6 36.9 14.2 37.5 14.2H41.1C42 14.2 42.6 15 42.4 15.8L41.4 19.5C41.2 20.1 40.7 20.5 40.1 20.5H36.5C35.6 20.6 34.9 19.8 35.2 18.9M22.4 18.9L23.4 15.2C23.6 14.6 24.1 14.2 24.7 14.2H28.3C29.2 14.2 29.8 15 29.6 15.8L28.6 19.5C28.4 20.1 27.9 20.5 27.3 20.5H23.7C22.8 20.6 22.2 19.8 22.4 18.9M32.4 53.1L31.4 56.8C31.2 57.4 30.7 57.8 30.1 57.8H26.5C25.6 57.8 25 57 25.2 56.2L26.2 52.5C26.4 51.9 26.9 51.5 27.5 51.5H31.1C32 51.4 32.6 52.2 32.4 53.1M45.1 53.1L44.1 56.8C43.9 57.4 43.4 57.8 42.8 57.8H39.2C38.3 57.8 37.7 57 37.9 56.2L38.9 52.5C39.1 51.9 39.6 51.5 40.2 51.5H43.8C44.7 51.4 45.3 52.2 45.1 53.1M45.6 37.2L33.9 46.5C32.5 47.6 30.9 46.8 31.3 45.3L36.3 26.8C36.7 25.3 38.8 24.5 39.5 25.6L46.3 34.9C46.8 35.5 46.5 36.5 45.6 37.2M47.9 18.9L48.9 15.2C49.1 14.6 49.6 14.2 50.2 14.2H53.8C54.7 14.2 55.3 15 55.1 15.8L54.1 19.5C53.9 20.1 53.4 20.5 52.8 20.5H49.2C48.3 20.6 47.6 19.8 47.9 18.9M57.8 53.1L56.8 56.8C56.6 57.4 56.1 57.8 55.5 57.8H51.9C51 57.8 50.4 57 50.6 56.2L51.6 52.5C51.8 51.9 52.3 51.5 52.9 51.5H56.5C57.4 51.4 58 52.2 57.8 53.1M67.8 15.9L66.8 19.6C66.6 20.2 66.1 20.6 65.5 20.6H61.9C61 20.6 60.4 19.8 60.6 19L61.6 15.3C61.8 14.7 62.3 14.3 62.9 14.3H66.5C67.4 14.2 68 15 67.8 15.9" data-fill-palette-color="accent"></path><path fill="#a7a7a7" d="M3.2 24.1H12.6C13.6 24.1 14.3 23.3 14.3 22.4 14.3 21.4 13.5 20.7 12.6 20.7H3.2C2.2 20.7 1.5 21.5 1.5 22.4 1.5 23.4 2.3 24.1 3.2 24.1" data-fill-palette-color="accent"></path><path fill="#a7a7a7" d="M2.2 33.2H9.6C10.6 33.2 11.3 32.4 11.3 31.5 11.3 30.5 10.5 29.8 9.6 29.8H2.2C1.2 29.8 0.5 30.6 0.5 31.5S1.3 33.2 2.2 33.2" data-fill-palette-color="accent"></path><path fill="#a7a7a7" d="M8.4 38.8H3.2C2.2 38.8 1.5 39.6 1.5 40.5 1.5 41.5 2.3 42.2 3.2 42.2H8.4C9.4 42.2 10.1 41.4 10.1 40.5S9.3 38.8 8.4 38.8" data-fill-palette-color="accent"></path><path fill="#a7a7a7" d="M5 47.9H2.2C1.2 47.9 0.5 48.7 0.5 49.6 0.5 50.6 1.3 51.3 2.2 51.3H5C6 51.3 6.7 50.5 6.7 49.6 6.7 48.6 6 47.9 5 47.9" data-fill-palette-color="accent"></path></g></svg></g></svg></g></svg></g><defs></defs></svg><rect width="395.52" height="68.16169751011043" fill="none" stroke="none" visibility="hidden"></rect></g></svg></g></svg>